<?xml version="1.0"?>
<svg xmlns="http://www.w3.org/2000/svg" xmlns:xlink="http://www.w3.org/1999/xlink" version="1.0" width="1109.0493" height="1000.4562" viewBox="9.1995 -2.0000 74.3156 67.5285">
<g id="layer_1_TODO:layer_name">
<!--normal-->
 <line x1="62.4640" y1="52.2240" x2="62.4640" y2="56.3200" stroke-width="0.2560" stroke="#2222bb" stroke-linecap="round"/>
 <line x1="19.4560" y1="7.1680" x2="27.6480" y2="7.1680" stroke-width="0.2560" stroke="#2222bb" stroke-linecap="round"/>
 <line x1="44.0320" y1="7.1680" x2="39.9360" y2="7.1680" stroke-width="0.2560" stroke="#2222bb" stroke-linecap="round"/>
 <line x1="44.0320" y1="11.2640" x2="39.9360" y2="11.2640" stroke-width="0.2560" stroke="#2222bb" stroke-linecap="round"/>
 <line x1="19.4560" y1="27.6480" x2="27.6480" y2="27.6480" stroke-width="0.2560" stroke="#2222bb" stroke-linecap="round"/>
 <line x1="19.4560" y1="27.6480" x2="19.4560" y2="19.4560" stroke-width="0.2560" stroke="#2222bb" stroke-linecap="round"/>
 <line x1="62.4640" y1="31.7440" x2="62.4640" y2="35.8400" stroke-width="0.2560" stroke="#2222bb" stroke-linecap="round"/>
 <line x1="62.4640" y1="11.2640" x2="62.4640" y2="7.1680" stroke-width="0.2560" stroke="#2222bb" stroke-linecap="round"/>
 <line x1="11.6784" y1="3.1705" x2="11.8169" y2="3.1705" stroke-width="0.1861" stroke="#119911" stroke-linecap="round"/>
 <line x1="11.2630" y1="2.7204" x2="11.2630" y2="1.4048" stroke-width="0.1861" stroke="#119911" stroke-linecap="round"/>
 <line x1="12.2670" y1="2.7204" x2="12.2670" y2="1.4048" stroke-width="0.1861" stroke="#119911" stroke-linecap="round"/>
 <path d="M 11.81690600 3.17047900 A 0.4501 0.4501 0 0 0 12.2670 2.7204" stroke-width="0.1861" stroke="#119911" stroke-linecap="round" fill="none"/>
 <path d="M 11.71304400 3.17047900 A 0.4501 0.4501 0 0 1 11.2630 2.7204" stroke-width="0.1861" stroke="#119911" stroke-linecap="round" fill="none"/>
 <line x1="13.2536" y1="3.1705" x2="13.4614" y2="3.1705" stroke-width="0.1861" stroke="#119911" stroke-linecap="round"/>
 <line x1="13.5299" y1="2.4446" x2="13.0078" y2="2.1761" stroke-width="0.1861" stroke="#119911" stroke-linecap="round"/>
 <line x1="13.1151" y1="1.4048" x2="13.2536" y2="1.4048" stroke-width="0.1861" stroke="#119911" stroke-linecap="round"/>
 <line x1="13.7383" y1="2.8935" x2="13.7383" y2="2.8243" stroke-width="0.1861" stroke="#119911" stroke-linecap="round"/>
 <path d="M 13.52988000 2.44456800 A 0.4501 0.4501 0 0 1 13.7383 2.8243" stroke-width="0.1861" stroke="#119911" stroke-linecap="round" fill="none"/>
 <path d="M 13.73831800 2.89351400 A 0.2770 0.2770 0 0 1 13.4614 3.1705" stroke-width="0.1861" stroke="#119911" stroke-linecap="round" fill="none"/>
 <path d="M 13.00779100 2.17608900 A 0.4154 0.4154 0 0 1 12.7343 1.7857" stroke-width="0.1861" stroke="#119911" stroke-linecap="round" fill="none"/>
 <path d="M 13.11514700 1.40482700 A 0.3808 0.3808 0 0 0 12.7343 1.7857" stroke-width="0.1861" stroke="#119911" stroke-linecap="round" fill="none"/>
 <path d="M 13.63524500 1.50732600 A 0.7617 0.7617 0 0 0 13.2536 1.4048" stroke-width="0.1861" stroke="#119911" stroke-linecap="round" fill="none"/>
 <path d="M 12.75207600 2.98202800 A 0.7617 0.7617 0 0 0 13.2536 3.1705" stroke-width="0.1861" stroke="#119911" stroke-linecap="round" fill="none"/>
 <line x1="14.2057" y1="3.1705" x2="14.2057" y2="1.4048" stroke-width="0.1861" stroke="#119911" stroke-linecap="round"/>
 <line x1="14.2057" y1="1.4048" x2="14.7250" y2="1.4048" stroke-width="0.1861" stroke="#119911" stroke-linecap="round"/>
 <line x1="14.7596" y1="3.1705" x2="14.2057" y2="3.1705" stroke-width="0.1861" stroke="#119911" stroke-linecap="round"/>
 <line x1="15.1750" y1="2.6512" x2="15.1750" y2="2.7897" stroke-width="0.1861" stroke="#119911" stroke-linecap="round"/>
 <line x1="14.6904" y1="2.2011" x2="14.2057" y2="2.2011" stroke-width="0.1861" stroke="#119911" stroke-linecap="round"/>
 <path d="M 15.17504200 2.68579000 A 0.4847 0.4847 0 0 0 14.6904 2.2011" stroke-width="0.1861" stroke="#119911" stroke-linecap="round" fill="none"/>
 <path d="M 14.69035300 2.20110200 A 0.4154 0.4154 0 0 0 15.1058 1.7857" stroke-width="0.1861" stroke="#119911" stroke-linecap="round" fill="none"/>
 <path d="M 14.75959400 3.17047900 A 0.4154 0.4154 0 0 0 15.1750 2.7550" stroke-width="0.1861" stroke="#119911" stroke-linecap="round" fill="none"/>
 <path d="M 15.10580000 1.78565400 A 0.3808 0.3808 0 0 0 14.7250 1.4048" stroke-width="0.1861" stroke="#119911" stroke-linecap="round" fill="none"/>
 <line x1="15.3600" y1="5.1200" x2="15.3600" y2="29.6960" stroke-width="0.1280" stroke="#119911" stroke-linecap="round"/>
 <line x1="15.3600" y1="29.6960" x2="11.2640" y2="29.6960" stroke-width="0.1280" stroke="#119911" stroke-linecap="round"/>
 <line x1="11.2640" y1="29.6960" x2="11.2640" y2="5.1200" stroke-width="0.1280" stroke="#119911" stroke-linecap="round"/>
 <line x1="11.2640" y1="5.1200" x2="15.3600" y2="5.1200" stroke-width="0.1280" stroke="#119911" stroke-linecap="round"/>
 <line x1="38.4000" y1="16.3840" x2="41.4720" y2="16.3840" stroke-width="0.1280" stroke="#119911" stroke-linecap="round"/>
 <line x1="39.4240" y1="17.4080" x2="40.4480" y2="17.4080" stroke-width="0.1280" stroke="#119911" stroke-linecap="round"/>
 <line x1="30.2080" y1="3.0720" x2="25.0880" y2="3.0720" stroke-width="0.1280" stroke="#119911" stroke-linecap="round"/>
 <line x1="42.4960" y1="3.0720" x2="37.3760" y2="3.0720" stroke-width="0.1280" stroke="#119911" stroke-linecap="round"/>
 <line x1="37.3760" y1="15.3600" x2="42.4960" y2="15.3600" stroke-width="0.1280" stroke="#119911" stroke-linecap="round"/>
 <line x1="26.1120" y1="32.7680" x2="29.1840" y2="32.7680" stroke-width="0.1280" stroke="#119911" stroke-linecap="round"/>
 <line x1="27.1360" y1="33.7920" x2="28.1600" y2="33.7920" stroke-width="0.1280" stroke="#119911" stroke-linecap="round"/>
 <line x1="25.0880" y1="31.7440" x2="30.2080" y2="31.7440" stroke-width="0.1280" stroke="#119911" stroke-linecap="round"/>
 <line x1="64.5120" y1="15.3600" x2="60.4160" y2="15.3600" stroke-width="0.1280" stroke="#119911" stroke-linecap="round"/>
 <line x1="60.4160" y1="15.3600" x2="60.4160" y2="27.6480" stroke-width="0.1280" stroke="#119911" stroke-linecap="round"/>
 <line x1="60.4160" y1="27.6480" x2="64.5120" y2="27.6480" stroke-width="0.1280" stroke="#119911" stroke-linecap="round"/>
 <line x1="64.5120" y1="27.6480" x2="64.5120" y2="15.3600" stroke-width="0.1280" stroke="#119911" stroke-linecap="round"/>
 <line x1="48.9243" y1="1.4048" x2="48.1280" y2="1.4048" stroke-width="0.1861" stroke="#119911" stroke-linecap="round"/>
 <line x1="48.1280" y1="1.4048" x2="48.1280" y2="2.2011" stroke-width="0.1861" stroke="#119911" stroke-linecap="round"/>
 <line x1="48.1280" y1="2.2011" x2="48.5088" y2="2.2011" stroke-width="0.1861" stroke="#119911" stroke-linecap="round"/>
 <line x1="48.5088" y1="3.1705" x2="48.1280" y2="3.1705" stroke-width="0.1861" stroke="#119911" stroke-linecap="round"/>
 <line x1="48.9243" y1="2.7550" x2="48.9243" y2="2.6165" stroke-width="0.1861" stroke="#119911" stroke-linecap="round"/>
 <path d="M 48.92427500 2.75503100 A 0.4154 0.4154 0 0 1 48.5088 3.1705" stroke-width="0.1861" stroke="#119911" stroke-linecap="round" fill="none"/>
 <path d="M 48.92427500 2.61654900 A 0.4154 0.4154 0 0 0 48.5088 2.2011" stroke-width="0.1861" stroke="#119911" stroke-linecap="round" fill="none"/>
 <line x1="49.3916" y1="1.4048" x2="50.0148" y2="3.1705" stroke-width="0.1861" stroke="#119911" stroke-linecap="round"/>
 <line x1="50.6380" y1="1.4048" x2="50.0148" y2="3.1705" stroke-width="0.1861" stroke="#119911" stroke-linecap="round"/>
 <line x1="48.1280" y1="5.1200" x2="48.1280" y2="13.3120" stroke-width="0.1280" stroke="#119911" stroke-linecap="round"/>
 <line x1="48.1280" y1="13.3120" x2="52.2240" y2="13.3120" stroke-width="0.1280" stroke="#119911" stroke-linecap="round"/>
 <line x1="52.2240" y1="13.3120" x2="52.2240" y2="5.1200" stroke-width="0.1280" stroke="#119911" stroke-linecap="round"/>
 <line x1="52.2240" y1="5.1200" x2="48.1280" y2="5.1200" stroke-width="0.1280" stroke="#119911" stroke-linecap="round"/>
 <line x1="65.0240" y1="3.0720" x2="59.9040" y2="3.0720" stroke-width="0.1280" stroke="#119911" stroke-linecap="round"/>
 <line x1="60.5532" y1="0.3802" x2="61.1764" y2="2.1459" stroke-width="0.1861" stroke="#119911" stroke-linecap="round"/>
 <line x1="61.7996" y1="0.3802" x2="61.1764" y2="2.1459" stroke-width="0.1861" stroke="#119911" stroke-linecap="round"/>
 <line x1="62.6607" y1="2.1459" x2="63.0415" y2="2.1459" stroke-width="0.1861" stroke="#119911" stroke-linecap="round"/>
 <line x1="62.4530" y1="1.1765" x2="62.4530" y2="1.9382" stroke-width="0.1861" stroke="#119911" stroke-linecap="round"/>
 <line x1="62.6607" y1="0.9688" x2="63.0415" y2="0.9688" stroke-width="0.1861" stroke="#119911" stroke-linecap="round"/>
 <path d="M 62.66071400 0.96879700 A 0.2077 0.2077 0 0 0 62.4530 1.1765" stroke-width="0.1861" stroke="#119911" stroke-linecap="round" fill="none"/>
 <path d="M 62.45299000 1.93817500 A 0.2077 0.2077 0 0 0 62.6607 2.1459" stroke-width="0.1861" stroke="#119911" stroke-linecap="round" fill="none"/>
 <line x1="63.9027" y1="2.1459" x2="64.2835" y2="2.1459" stroke-width="0.1861" stroke="#119911" stroke-linecap="round"/>
 <line x1="63.6950" y1="1.1765" x2="63.6950" y2="1.9382" stroke-width="0.1861" stroke="#119911" stroke-linecap="round"/>
 <line x1="63.9027" y1="0.9688" x2="64.2835" y2="0.9688" stroke-width="0.1861" stroke="#119911" stroke-linecap="round"/>
 <path d="M 63.90269600 0.96879700 A 0.2077 0.2077 0 0 0 63.6950 1.1765" stroke-width="0.1861" stroke="#119911" stroke-linecap="round" fill="none"/>
 <path d="M 63.69497200 1.93817500 A 0.2077 0.2077 0 0 0 63.9027 2.1459" stroke-width="0.1861" stroke="#119911" stroke-linecap="round" fill="none"/>
 <line x1="38.0252" y1="0.3802" x2="38.6484" y2="2.1459" stroke-width="0.1861" stroke="#119911" stroke-linecap="round"/>
 <line x1="39.2716" y1="0.3802" x2="38.6484" y2="2.1459" stroke-width="0.1861" stroke="#119911" stroke-linecap="round"/>
 <line x1="40.1327" y1="2.1459" x2="40.5135" y2="2.1459" stroke-width="0.1861" stroke="#119911" stroke-linecap="round"/>
 <line x1="39.9250" y1="1.1765" x2="39.9250" y2="1.9382" stroke-width="0.1861" stroke="#119911" stroke-linecap="round"/>
 <line x1="40.1327" y1="0.9688" x2="40.5135" y2="0.9688" stroke-width="0.1861" stroke="#119911" stroke-linecap="round"/>
 <path d="M 40.13271400 0.96879700 A 0.2077 0.2077 0 0 0 39.9250 1.1765" stroke-width="0.1861" stroke="#119911" stroke-linecap="round" fill="none"/>
 <path d="M 39.92499000 1.93817500 A 0.2077 0.2077 0 0 0 40.1327 2.1459" stroke-width="0.1861" stroke="#119911" stroke-linecap="round" fill="none"/>
 <line x1="41.3747" y1="2.1459" x2="41.7555" y2="2.1459" stroke-width="0.1861" stroke="#119911" stroke-linecap="round"/>
 <line x1="41.1670" y1="1.1765" x2="41.1670" y2="1.9382" stroke-width="0.1861" stroke="#119911" stroke-linecap="round"/>
 <line x1="41.3747" y1="0.9688" x2="41.7555" y2="0.9688" stroke-width="0.1861" stroke="#119911" stroke-linecap="round"/>
 <path d="M 41.37469600 0.96879700 A 0.2077 0.2077 0 0 0 41.1670 1.1765" stroke-width="0.1861" stroke="#119911" stroke-linecap="round" fill="none"/>
 <path d="M 41.16697200 1.93817500 A 0.2077 0.2077 0 0 0 41.3747 2.1459" stroke-width="0.1861" stroke="#119911" stroke-linecap="round" fill="none"/>
 <line x1="25.7372" y1="0.3802" x2="26.3604" y2="2.1459" stroke-width="0.1861" stroke="#119911" stroke-linecap="round"/>
 <line x1="26.9836" y1="0.3802" x2="26.3604" y2="2.1459" stroke-width="0.1861" stroke="#119911" stroke-linecap="round"/>
 <line x1="27.8447" y1="2.1459" x2="28.2255" y2="2.1459" stroke-width="0.1861" stroke="#119911" stroke-linecap="round"/>
 <line x1="27.6370" y1="1.1765" x2="27.6370" y2="1.9382" stroke-width="0.1861" stroke="#119911" stroke-linecap="round"/>
 <line x1="27.8447" y1="0.9688" x2="28.2255" y2="0.9688" stroke-width="0.1861" stroke="#119911" stroke-linecap="round"/>
 <path d="M 27.84471400 0.96879700 A 0.2077 0.2077 0 0 0 27.6370 1.1765" stroke-width="0.1861" stroke="#119911" stroke-linecap="round" fill="none"/>
 <path d="M 27.63699000 1.93817500 A 0.2077 0.2077 0 0 0 27.8447 2.1459" stroke-width="0.1861" stroke="#119911" stroke-linecap="round" fill="none"/>
 <line x1="29.0867" y1="2.1459" x2="29.4675" y2="2.1459" stroke-width="0.1861" stroke="#119911" stroke-linecap="round"/>
 <line x1="28.8790" y1="1.1765" x2="28.8790" y2="1.9382" stroke-width="0.1861" stroke="#119911" stroke-linecap="round"/>
 <line x1="29.0867" y1="0.9688" x2="29.4675" y2="0.9688" stroke-width="0.1861" stroke="#119911" stroke-linecap="round"/>
 <path d="M 29.08669600 0.96879700 A 0.2077 0.2077 0 0 0 28.8790 1.1765" stroke-width="0.1861" stroke="#119911" stroke-linecap="round" fill="none"/>
 <path d="M 28.87897200 1.93817500 A 0.2077 0.2077 0 0 0 29.0867 2.1459" stroke-width="0.1861" stroke="#119911" stroke-linecap="round" fill="none"/>
 <line x1="65.5360" y1="20.8602" x2="65.9861" y2="20.8602" stroke-width="0.1861" stroke="#119911" stroke-linecap="round"/>
 <line x1="65.7091" y1="21.6565" x2="65.9861" y2="21.6565" stroke-width="0.1861" stroke="#119911" stroke-linecap="round"/>
 <line x1="66.3323" y1="22.0373" x2="66.3323" y2="22.2105" stroke-width="0.1861" stroke="#119911" stroke-linecap="round"/>
 <line x1="65.5360" y1="22.6259" x2="65.9168" y2="22.6259" stroke-width="0.1861" stroke="#119911" stroke-linecap="round"/>
 <path d="M 66.33227500 22.21045100 A 0.4154 0.4154 0 0 1 65.9168 22.6259" stroke-width="0.1861" stroke="#119911" stroke-linecap="round" fill="none"/>
 <path d="M 65.95144800 21.65652100 A 0.3808 0.3808 0 0 1 66.3323 22.0373" stroke-width="0.1861" stroke="#119911" stroke-linecap="round" fill="none"/>
 <path d="M 65.88220600 21.65652100 A 0.4501 0.4501 0 0 0 66.3323 21.2065" stroke-width="0.1861" stroke="#119911" stroke-linecap="round" fill="none"/>
 <path d="M 66.33227400 21.20645300 A 0.3462 0.3462 0 0 0 65.9861 20.8602" stroke-width="0.1861" stroke="#119911" stroke-linecap="round" fill="none"/>
 <line x1="66.7996" y1="20.8602" x2="67.2497" y2="20.8602" stroke-width="0.1861" stroke="#119911" stroke-linecap="round"/>
 <line x1="66.9727" y1="21.6565" x2="67.2497" y2="21.6565" stroke-width="0.1861" stroke="#119911" stroke-linecap="round"/>
 <line x1="67.5959" y1="22.0373" x2="67.5959" y2="22.2105" stroke-width="0.1861" stroke="#119911" stroke-linecap="round"/>
 <line x1="66.7996" y1="22.6259" x2="67.1804" y2="22.6259" stroke-width="0.1861" stroke="#119911" stroke-linecap="round"/>
 <path d="M 67.59589500 22.21045100 A 0.4154 0.4154 0 0 1 67.1804 22.6259" stroke-width="0.1861" stroke="#119911" stroke-linecap="round" fill="none"/>
 <path d="M 67.21506800 21.65652100 A 0.3808 0.3808 0 0 1 67.5959 22.0373" stroke-width="0.1861" stroke="#119911" stroke-linecap="round" fill="none"/>
 <path d="M 67.14582600 21.65652100 A 0.4501 0.4501 0 0 0 67.5959 21.2065" stroke-width="0.1861" stroke="#119911" stroke-linecap="round" fill="none"/>
 <path d="M 67.59589400 21.20645300 A 0.3462 0.3462 0 0 0 67.2497 20.8602" stroke-width="0.1861" stroke="#119911" stroke-linecap="round" fill="none"/>
 <line x1="68.3696" y1="20.8826" x2="68.3057" y2="20.9537" stroke-width="0.1861" stroke="#119911" stroke-linecap="round"/>
 <line x1="68.5878" y1="22.6035" x2="68.6516" y2="22.5324" stroke-width="0.1861" stroke="#119911" stroke-linecap="round"/>
 <line x1="68.5878" y1="20.8826" x2="68.6516" y2="20.9537" stroke-width="0.1861" stroke="#119911" stroke-linecap="round"/>
 <line x1="68.3057" y1="22.5324" x2="68.3696" y2="22.6035" stroke-width="0.1861" stroke="#119911" stroke-linecap="round"/>
 <line x1="68.8941" y1="21.7258" x2="68.8941" y2="21.7604" stroke-width="0.1861" stroke="#119911" stroke-linecap="round"/>
 <line x1="68.0632" y1="21.7258" x2="68.0632" y2="21.7604" stroke-width="0.1861" stroke="#119911" stroke-linecap="round"/>
 <path d="M 68.65163600 20.95372600 A 1.3502 1.3502 0 0 1 68.8941 21.7258" stroke-width="0.1861" stroke="#119911" stroke-linecap="round" fill="none"/>
 <path d="M 68.30574000 22.53242000 A 1.3502 1.3502 0 0 1 68.0632 21.7604" stroke-width="0.1861" stroke="#119911" stroke-linecap="round" fill="none"/>
 <path d="M 68.65163600 22.53242000 A 1.3502 1.3502 0 0 0 68.8941 21.7604" stroke-width="0.1861" stroke="#119911" stroke-linecap="round" fill="none"/>
 <path d="M 68.36958600 22.60350500 A 0.2770 0.2770 0 0 0 68.5878 22.6035" stroke-width="0.1861" stroke="#119911" stroke-linecap="round" fill="none"/>
 <path d="M 68.30574000 20.95372600 A 1.3502 1.3502 0 0 0 68.0632 21.7258" stroke-width="0.1861" stroke="#119911" stroke-linecap="round" fill="none"/>
 <path d="M 68.58779000 20.88264100 A 0.2770 0.2770 0 0 0 68.3696 20.8826" stroke-width="0.1861" stroke="#119911" stroke-linecap="round" fill="none"/>
 <line x1="69.3615" y1="22.6259" x2="69.3615" y2="20.8602" stroke-width="0.1861" stroke="#119911" stroke-linecap="round"/>
 <line x1="69.9154" y1="21.8296" x2="69.3615" y2="21.8296" stroke-width="0.1861" stroke="#119911" stroke-linecap="round"/>
 <line x1="69.9154" y1="20.8602" x2="69.3615" y2="20.8602" stroke-width="0.1861" stroke="#119911" stroke-linecap="round"/>
 <line x1="70.3309" y1="21.2757" x2="70.3309" y2="21.4142" stroke-width="0.1861" stroke="#119911" stroke-linecap="round"/>
 <line x1="70.3309" y1="22.6259" x2="69.9500" y2="21.8296" stroke-width="0.1861" stroke="#119911" stroke-linecap="round"/>
 <path d="M 69.91541100 20.86024600 A 0.4154 0.4154 0 0 1 70.3309 21.2757" stroke-width="0.1861" stroke="#119911" stroke-linecap="round" fill="none"/>
 <path d="M 69.91541100 21.82962500 A 0.4154 0.4154 0 0 0 70.3309 21.4142" stroke-width="0.1861" stroke="#119911" stroke-linecap="round" fill="none"/>
 <line x1="65.5360" y1="18.5299" x2="65.5360" y2="16.7642" stroke-width="0.1861" stroke="#119911" stroke-linecap="round"/>
 <line x1="66.0899" y1="17.7336" x2="65.5360" y2="17.7336" stroke-width="0.1861" stroke="#119911" stroke-linecap="round"/>
 <line x1="66.0899" y1="16.7642" x2="65.5360" y2="16.7642" stroke-width="0.1861" stroke="#119911" stroke-linecap="round"/>
 <line x1="66.5054" y1="17.1797" x2="66.5054" y2="17.3182" stroke-width="0.1861" stroke="#119911" stroke-linecap="round"/>
 <line x1="66.5054" y1="18.5299" x2="66.1246" y2="17.7336" stroke-width="0.1861" stroke="#119911" stroke-linecap="round"/>
 <path d="M 66.08993000 16.76424600 A 0.4154 0.4154 0 0 1 66.5054 17.1797" stroke-width="0.1861" stroke="#119911" stroke-linecap="round" fill="none"/>
 <path d="M 66.08993000 17.73362500 A 0.4154 0.4154 0 0 0 66.5054 17.3182" stroke-width="0.1861" stroke="#119911" stroke-linecap="round" fill="none"/>
 <line x1="66.9727" y1="17.1451" x2="67.3535" y2="16.7642" stroke-width="0.1861" stroke="#119911" stroke-linecap="round"/>
 <line x1="67.3535" y1="16.7642" x2="67.3535" y2="18.5299" stroke-width="0.1861" stroke="#119911" stroke-linecap="round"/>
 <line x1="62.4640" y1="48.1280" x2="62.4640" y2="46.0800" stroke-width="0.1280" stroke="#119911" stroke-linecap="round"/>
 <line x1="62.4640" y1="39.9360" x2="62.4640" y2="41.9840" stroke-width="0.1280" stroke="#119911" stroke-linecap="round"/>
 <line x1="60.9280" y1="61.4400" x2="64.0000" y2="61.4400" stroke-width="0.1280" stroke="#119911" stroke-linecap="round"/>
 <line x1="61.9520" y1="62.4640" x2="62.9760" y2="62.4640" stroke-width="0.1280" stroke="#119911" stroke-linecap="round"/>
 <line x1="59.9040" y1="60.4160" x2="65.0240" y2="60.4160" stroke-width="0.1280" stroke="#119911" stroke-linecap="round"/>
 <line x1="66.5600" y1="41.9840" x2="62.4640" y2="46.0800" stroke-width="0.1280" stroke="#119911" stroke-linecap="round"/>
 <line x1="62.4640" y1="46.0800" x2="58.3680" y2="41.9840" stroke-width="0.1280" stroke="#119911" stroke-linecap="round"/>
 <line x1="66.5600" y1="41.9840" x2="58.3680" y2="41.9840" stroke-width="0.1280" stroke="#119911" stroke-linecap="round"/>
 <line x1="66.5600" y1="46.0800" x2="58.3680" y2="46.0800" stroke-width="0.1280" stroke="#119911" stroke-linecap="round"/>
 <line x1="75.7760" y1="43.1059" x2="75.7760" y2="41.3402" stroke-width="0.1861" stroke="#119911" stroke-linecap="round"/>
 <line x1="75.7760" y1="43.1059" x2="76.5377" y2="43.1059" stroke-width="0.1861" stroke="#119911" stroke-linecap="round"/>
 <line x1="77.1911" y1="43.1059" x2="77.1911" y2="41.3402" stroke-width="0.1861" stroke="#119911" stroke-linecap="round"/>
 <line x1="77.1911" y1="41.3402" x2="77.9527" y2="41.3402" stroke-width="0.1861" stroke="#119911" stroke-linecap="round"/>
 <line x1="77.9527" y1="43.1059" x2="77.1911" y2="43.1059" stroke-width="0.1861" stroke="#119911" stroke-linecap="round"/>
 <line x1="77.7796" y1="42.1365" x2="77.1911" y2="42.1365" stroke-width="0.1861" stroke="#119911" stroke-linecap="round"/>
 <line x1="78.6062" y1="41.3402" x2="79.2293" y2="41.3402" stroke-width="0.1861" stroke="#119911" stroke-linecap="round"/>
 <line x1="78.6062" y1="43.1059" x2="79.2293" y2="43.1059" stroke-width="0.1861" stroke="#119911" stroke-linecap="round"/>
 <line x1="79.5755" y1="41.6865" x2="79.5755" y2="42.7597" stroke-width="0.1861" stroke="#119911" stroke-linecap="round"/>
 <line x1="78.6062" y1="41.3402" x2="78.6062" y2="43.1059" stroke-width="0.1861" stroke="#119911" stroke-linecap="round"/>
 <path d="M 79.22934200 43.10589900 A 0.3462 0.3462 0 0 0 79.5755 42.7597" stroke-width="0.1861" stroke="#119911" stroke-linecap="round" fill="none"/>
 <path d="M 79.22934200 41.34024700 A 0.3462 0.3462 0 0 1 79.5755 41.6865" stroke-width="0.1861" stroke="#119911" stroke-linecap="round" fill="none"/>
 <line x1="80.0429" y1="41.7211" x2="80.4237" y2="41.3402" stroke-width="0.1861" stroke="#119911" stroke-linecap="round"/>
 <line x1="80.4237" y1="41.3402" x2="80.4237" y2="43.1059" stroke-width="0.1861" stroke="#119911" stroke-linecap="round"/>
 <line x1="70.6560" y1="44.0320" x2="73.7280" y2="46.0800" stroke-width="0.1280" stroke="#119911" stroke-linecap="round"/>
 <line x1="73.7280" y1="46.0800" x2="72.7040" y2="45.0560" stroke-width="0.1280" stroke="#119911" stroke-linecap="round"/>
 <line x1="73.7280" y1="46.0800" x2="72.2381" y2="45.5506" stroke-width="0.1280" stroke="#119911" stroke-linecap="round"/>
 <line x1="72.7040" y1="44.0320" x2="70.6560" y2="44.0320" stroke-width="0.1280" stroke="#119911" stroke-linecap="round"/>
 <line x1="72.0425" y1="45.7697" x2="71.0185" y2="44.7457" stroke-width="0.1280" stroke="#119911" stroke-linecap="round"/>
 <line x1="69.6320" y1="41.9840" x2="72.7040" y2="44.0320" stroke-width="0.1280" stroke="#119911" stroke-linecap="round"/>
 <line x1="68.9705" y1="43.7217" x2="72.0425" y2="45.7697" stroke-width="0.1280" stroke="#119911" stroke-linecap="round"/>
 <line x1="72.0425" y1="45.7697" x2="70.5526" y2="45.2403" stroke-width="0.1280" stroke="#119911" stroke-linecap="round"/>
 <line x1="71.0185" y1="43.7217" x2="68.9705" y2="43.7217" stroke-width="0.1280" stroke="#119911" stroke-linecap="round"/>
 <line x1="67.9465" y1="41.6737" x2="71.0185" y2="43.7217" stroke-width="0.1280" stroke="#119911" stroke-linecap="round"/>
 <line x1="62.4640" y1="52.2240" x2="62.4640" y2="48.1280" stroke-width="0.2560" stroke="#222222" stroke-linecap="round"/>
 <line x1="64.7749" y1="49.1520" x2="65.1558" y2="49.5328" stroke-width="0.1861" stroke="#222222" stroke-linecap="round"/>
 <line x1="65.1558" y1="49.5328" x2="63.3901" y2="49.5328" stroke-width="0.1861" stroke="#222222" stroke-linecap="round"/>
 <line x1="62.4640" y1="31.7440" x2="62.4640" y2="27.6480" stroke-width="0.2560" stroke="#222222" stroke-linecap="round"/>
 <line x1="63.3901" y1="28.6853" x2="63.3901" y2="29.4470" stroke-width="0.1861" stroke="#222222" stroke-linecap="round"/>
 <line x1="63.3901" y1="28.6853" x2="64.5266" y2="29.4224" stroke-width="0.1861" stroke="#222222" stroke-linecap="round"/>
 <path d="M 64.52656000 29.42237300 A 0.4154 0.4154 0 1 0 64.8717 28.6720" stroke-width="0.1861" stroke="#222222" stroke-linecap="round" fill="none"/>
 <line x1="62.4640" y1="35.8400" x2="62.4640" y2="39.9360" stroke-width="0.2560" stroke="#222222" stroke-linecap="round"/>
 <line x1="63.3901" y1="37.9310" x2="63.3901" y2="38.6927" stroke-width="0.1861" stroke="#222222" stroke-linecap="round"/>
 <line x1="63.3901" y1="37.9310" x2="64.5266" y2="38.6681" stroke-width="0.1861" stroke="#222222" stroke-linecap="round"/>
 <path d="M 64.52656000 38.66806900 A 0.4154 0.4154 0 1 0 64.8717 37.9177" stroke-width="0.1861" stroke="#222222" stroke-linecap="round" fill="none"/>
 <line x1="62.4640" y1="56.3200" x2="62.4640" y2="60.4160" stroke-width="0.2560" stroke="#222222" stroke-linecap="round"/>
 <line x1="15.3600" y1="7.1680" x2="19.4560" y2="7.1680" stroke-width="0.2560" stroke="#222222" stroke-linecap="round"/>
 <line x1="16.3840" y1="7.9297" x2="16.7648" y2="7.5488" stroke-width="0.1861" stroke="#222222" stroke-linecap="round"/>
 <line x1="16.7648" y1="7.5488" x2="16.7648" y2="9.3145" stroke-width="0.1861" stroke="#222222" stroke-linecap="round"/>
 <line x1="15.3600" y1="11.2640" x2="19.4560" y2="11.2640" stroke-width="0.2560" stroke="#222222" stroke-linecap="round"/>
 <line x1="27.6480" y1="7.1680" x2="27.6480" y2="3.0720" stroke-width="0.2560" stroke="#222222" stroke-linecap="round"/>
 <line x1="62.4640" y1="11.2640" x2="62.4640" y2="15.3600" stroke-width="0.2560" stroke="#222222" stroke-linecap="round"/>
 <line x1="64.7749" y1="13.8629" x2="65.1558" y2="14.2437" stroke-width="0.1861" stroke="#222222" stroke-linecap="round"/>
 <line x1="65.1558" y1="14.2437" x2="63.3901" y2="14.2437" stroke-width="0.1861" stroke="#222222" stroke-linecap="round"/>
 <line x1="62.4640" y1="7.1680" x2="62.4640" y2="3.0720" stroke-width="0.2560" stroke="#222222" stroke-linecap="round"/>
 <line x1="16.3973" y1="13.4105" x2="17.1590" y2="13.4105" stroke-width="0.1861" stroke="#222222" stroke-linecap="round"/>
 <line x1="16.3973" y1="13.4105" x2="17.1344" y2="12.2740" stroke-width="0.1861" stroke="#222222" stroke-linecap="round"/>
 <path d="M 17.13437300 12.27402000 A 0.4154 0.4154 0 1 0 16.3840 11.9289" stroke-width="0.1861" stroke="#222222" stroke-linecap="round" fill="none"/>
 <line x1="15.3600" y1="15.3600" x2="19.4560" y2="15.3600" stroke-width="0.2560" stroke="#222222" stroke-linecap="round"/>
 <line x1="48.1280" y1="11.2640" x2="44.0320" y2="11.2640" stroke-width="0.2560" stroke="#222222" stroke-linecap="round"/>
 <line x1="46.1230" y1="13.4105" x2="46.8847" y2="13.4105" stroke-width="0.1861" stroke="#222222" stroke-linecap="round"/>
 <line x1="46.1230" y1="13.4105" x2="46.8601" y2="12.2740" stroke-width="0.1861" stroke="#222222" stroke-linecap="round"/>
 <path d="M 46.86006900 12.27402000 A 0.4154 0.4154 0 1 0 46.1097 11.9289" stroke-width="0.1861" stroke="#222222" stroke-linecap="round" fill="none"/>
 <line x1="48.1280" y1="7.1680" x2="44.0320" y2="7.1680" stroke-width="0.2560" stroke="#222222" stroke-linecap="round"/>
 <line x1="46.6309" y1="7.9297" x2="47.0117" y2="7.5488" stroke-width="0.1861" stroke="#222222" stroke-linecap="round"/>
 <line x1="47.0117" y1="7.5488" x2="47.0117" y2="9.3145" stroke-width="0.1861" stroke="#222222" stroke-linecap="round"/>
 <line x1="39.9360" y1="7.1680" x2="39.9360" y2="3.0720" stroke-width="0.2560" stroke="#222222" stroke-linecap="round"/>
 <line x1="39.9360" y1="11.2640" x2="39.9360" y2="15.3600" stroke-width="0.2560" stroke="#222222" stroke-linecap="round"/>
 <line x1="16.3840" y1="15.7408" x2="16.8341" y2="15.7408" stroke-width="0.1861" stroke="#222222" stroke-linecap="round"/>
 <line x1="16.5571" y1="16.5371" x2="16.8341" y2="16.5371" stroke-width="0.1861" stroke="#222222" stroke-linecap="round"/>
 <line x1="17.1803" y1="16.9179" x2="17.1803" y2="17.0910" stroke-width="0.1861" stroke="#222222" stroke-linecap="round"/>
 <line x1="16.3840" y1="17.5065" x2="16.7648" y2="17.5065" stroke-width="0.1861" stroke="#222222" stroke-linecap="round"/>
 <path d="M 17.18027500 17.09103100 A 0.4154 0.4154 0 0 1 16.7648 17.5065" stroke-width="0.1861" stroke="#222222" stroke-linecap="round" fill="none"/>
 <path d="M 16.79944800 16.53710100 A 0.3808 0.3808 0 0 1 17.1803 16.9179" stroke-width="0.1861" stroke="#222222" stroke-linecap="round" fill="none"/>
 <path d="M 16.73020600 16.53710100 A 0.4501 0.4501 0 0 0 17.1803 16.0870" stroke-width="0.1861" stroke="#222222" stroke-linecap="round" fill="none"/>
 <path d="M 17.18027400 16.08703300 A 0.3462 0.3462 0 0 0 16.8341 15.7408" stroke-width="0.1861" stroke="#222222" stroke-linecap="round" fill="none"/>
 <line x1="17.1803" y1="23.9328" x2="16.3840" y2="23.9328" stroke-width="0.1861" stroke="#222222" stroke-linecap="round"/>
 <line x1="16.3840" y1="23.9328" x2="16.3840" y2="24.7291" stroke-width="0.1861" stroke="#222222" stroke-linecap="round"/>
 <line x1="16.3840" y1="24.7291" x2="16.7648" y2="24.7291" stroke-width="0.1861" stroke="#222222" stroke-linecap="round"/>
 <line x1="16.7648" y1="25.6985" x2="16.3840" y2="25.6985" stroke-width="0.1861" stroke="#222222" stroke-linecap="round"/>
 <line x1="17.1803" y1="25.2830" x2="17.1803" y2="25.1445" stroke-width="0.1861" stroke="#222222" stroke-linecap="round"/>
 <path d="M 17.18027500 25.28303100 A 0.4154 0.4154 0 0 1 16.7648 25.6985" stroke-width="0.1861" stroke="#222222" stroke-linecap="round" fill="none"/>
 <path d="M 17.18027500 25.14454900 A 0.4154 0.4154 0 0 0 16.7648 24.7291" stroke-width="0.1861" stroke="#222222" stroke-linecap="round" fill="none"/>
 <line x1="16.3840" y1="28.8251" x2="16.8341" y2="28.8251" stroke-width="0.1861" stroke="#222222" stroke-linecap="round"/>
 <line x1="16.3840" y1="28.6866" x2="16.3840" y2="29.4483" stroke-width="0.1861" stroke="#222222" stroke-linecap="round"/>
 <line x1="17.1803" y1="29.4483" x2="17.1803" y2="29.1713" stroke-width="0.1861" stroke="#222222" stroke-linecap="round"/>
 <line x1="16.7302" y1="29.7945" x2="16.8341" y2="29.7945" stroke-width="0.1861" stroke="#222222" stroke-linecap="round"/>
 <path d="M 16.96915100 28.03285000 A 0.6578 0.6578 0 0 0 16.3840 28.6866" stroke-width="0.1861" stroke="#222222" stroke-linecap="round" fill="none"/>
 <path d="M 17.18027400 29.44827300 A 0.3462 0.3462 0 0 1 16.8341 29.7945" stroke-width="0.1861" stroke="#222222" stroke-linecap="round" fill="none"/>
 <path d="M 16.38400000 29.44827300 A 0.3462 0.3462 0 0 0 16.7302 29.7945" stroke-width="0.1861" stroke="#222222" stroke-linecap="round" fill="none"/>
 <path d="M 17.18027400 29.17130800 A 0.3462 0.3462 0 0 0 16.8341 28.8251" stroke-width="0.1861" stroke="#222222" stroke-linecap="round" fill="none"/>
 <line x1="15.3600" y1="19.4560" x2="19.4560" y2="19.4560" stroke-width="0.2560" stroke="#222222" stroke-linecap="round"/>
 <line x1="15.3600" y1="23.5520" x2="19.4560" y2="23.5520" stroke-width="0.2560" stroke="#222222" stroke-linecap="round"/>
 <line x1="15.3600" y1="27.6480" x2="19.4560" y2="27.6480" stroke-width="0.2560" stroke="#222222" stroke-linecap="round"/>
 <line x1="27.6480" y1="27.6480" x2="27.6480" y2="31.7440" stroke-width="0.2560" stroke="#222222" stroke-linecap="round"/>
 <line x1="16.7648" y1="19.8368" x2="16.3840" y2="21.2217" stroke-width="0.1861" stroke="#222222" stroke-linecap="round"/>
 <line x1="16.3840" y1="21.2217" x2="17.3534" y2="21.2217" stroke-width="0.1861" stroke="#222222" stroke-linecap="round"/>
 <line x1="17.0418" y1="20.8062" x2="17.0418" y2="21.6025" stroke-width="0.1861" stroke="#222222" stroke-linecap="round"/>
</g>
</svg>
