G04 start of page 2 for group 8 layer_idx 1 *
G04 Title: (unknown), bottom_copper *
G04 Creator: pcb-rnd 3.1.5-dev *
G04 CreationDate: 2024-03-24 09:53:49 UTC *
G04 For: STEM4ukraine *
G04 Format: Gerber/RS-274X *
G04 PCB-Dimensions: 393701 393701 *
G04 PCB-Coordinate-Origin: lower left *
%MOIN*%
%FSLAX25Y25*%
%LNBOTTOM_COPPER_NONE_8*%
%ADD27C,0.0374*%
%ADD26C,0.0394*%
%ADD25C,0.1220*%
%ADD24C,0.1260*%
%ADD23C,0.0827*%
%ADD22C,0.1535*%
%ADD21C,0.0800*%
%ADD20C,0.0551*%
%ADD19C,0.0001*%
G54D19*G36*
X391732Y391732D02*Y1969D01*
X385658D01*
Y9593D01*
X386079Y9851D01*
X386344Y10077D01*
X385658Y10764D01*
Y14299D01*
X388112Y11845D01*
X388338Y12110D01*
X389175Y13476D01*
X389788Y14956D01*
X390162Y16513D01*
X390256Y18110D01*
Y19685D01*
X390162Y21282D01*
X389788Y22840D01*
X389175Y24320D01*
X388338Y25685D01*
X388112Y25950D01*
X385658Y23496D01*
Y27032D01*
X386344Y27718D01*
X386079Y27944D01*
X385658Y28202D01*
Y373685D01*
X385817Y373946D01*
X386347Y375225D01*
X386670Y376572D01*
X386752Y377953D01*
X386670Y379334D01*
X386347Y380680D01*
X385817Y381960D01*
X385658Y382220D01*
Y391732D01*
X391732D01*
G37*
G36*
X384713Y28781D02*X383233Y29394D01*
X381676Y29768D01*
X380079Y29894D01*
X378482Y29768D01*
X377939Y29638D01*
Y369127D01*
X377953Y369126D01*
X379334Y369235D01*
X380680Y369558D01*
X381960Y370088D01*
X383141Y370812D01*
X384194Y371712D01*
X385093Y372765D01*
X385658Y373685D01*
Y28202D01*
X384713Y28781D01*
G37*
G36*
X380079Y16342D02*X377939Y14203D01*
Y17738D01*
X379098Y18898D01*
X377939Y20057D01*
Y23592D01*
X380079Y21453D01*
X385658Y27032D01*
Y23496D01*
X381059Y18898D01*
X385658Y14299D01*
Y10764D01*
X380079Y16342D01*
G37*
G36*
X377939Y1969D02*Y8158D01*
X378482Y8027D01*
X380079Y7902D01*
X381676Y8027D01*
X383233Y8401D01*
X384713Y9014D01*
X385658Y9593D01*
Y1969D01*
X377939D01*
G37*
G36*
X385658Y391732D02*Y382220D01*
X385093Y383141D01*
X384194Y384194D01*
X383141Y385093D01*
X381960Y385817D01*
X380680Y386347D01*
X379334Y386670D01*
X377953Y386779D01*
X377939Y386778D01*
Y391732D01*
X385658D01*
G37*
G36*
X377939D02*Y386778D01*
X376572Y386670D01*
X375225Y386347D01*
X373946Y385817D01*
X372765Y385093D01*
X371712Y384194D01*
X370812Y383141D01*
X370088Y381960D01*
X369558Y380680D01*
X369235Y379334D01*
X369126Y377953D01*
X369235Y376572D01*
X369558Y375225D01*
X370088Y373946D01*
X370812Y372765D01*
X371712Y371712D01*
X372765Y370812D01*
X373946Y370088D01*
X375225Y369558D01*
X376572Y369235D01*
X377939Y369127D01*
Y29638D01*
X376924Y29394D01*
X375444Y28781D01*
X374078Y27944D01*
X373814Y27718D01*
X377939Y23592D01*
Y20057D01*
X372046Y25950D01*
X371820Y25685D01*
X370983Y24320D01*
X370370Y22840D01*
X369996Y21282D01*
X369902Y19685D01*
Y18110D01*
X369996Y16513D01*
X370370Y14956D01*
X370983Y13476D01*
X371820Y12110D01*
X372046Y11845D01*
X377939Y17738D01*
Y14203D01*
X373814Y10077D01*
X374078Y9851D01*
X375444Y9014D01*
X376924Y8401D01*
X377939Y8158D01*
Y1969D01*
X356368D01*
Y12273D01*
X356949Y11594D01*
X357683Y10967D01*
X358506Y10463D01*
X359398Y10093D01*
X360337Y9868D01*
X361299Y9792D01*
X362262Y9868D01*
X363201Y10093D01*
X364093Y10463D01*
X364916Y10967D01*
X365650Y11594D01*
X366277Y12328D01*
X366781Y13152D01*
X367151Y14044D01*
X367376Y14982D01*
X367433Y15945D01*
X367376Y16907D01*
X367151Y17846D01*
X366781Y18738D01*
X366277Y19561D01*
X365650Y20296D01*
X364916Y20923D01*
X364093Y21427D01*
X363201Y21797D01*
X362262Y22022D01*
X361299Y22098D01*
X360337Y22022D01*
X359398Y21797D01*
X358506Y21427D01*
X357683Y20923D01*
X356949Y20296D01*
X356368Y19616D01*
Y24850D01*
X356378Y24861D01*
X356949Y24193D01*
X357683Y23566D01*
X358506Y23061D01*
X359398Y22692D01*
X360337Y22466D01*
X361299Y22391D01*
X362262Y22466D01*
X363201Y22692D01*
X364093Y23061D01*
X364916Y23566D01*
X365650Y24193D01*
X366277Y24927D01*
X366781Y25750D01*
X367151Y26642D01*
X367376Y27581D01*
X367433Y28543D01*
X367376Y29506D01*
X367151Y30445D01*
X366781Y31337D01*
X366277Y32160D01*
X365650Y32894D01*
X364916Y33521D01*
X364093Y34025D01*
X363201Y34395D01*
X362262Y34620D01*
X361299Y34696D01*
X360337Y34620D01*
X359398Y34395D01*
X358506Y34025D01*
X357683Y33521D01*
X356949Y32894D01*
X356378Y32226D01*
X356368Y32237D01*
Y391732D01*
X377939D01*
G37*
G36*
X352419Y22466D02*X353358Y22692D01*
X354250Y23061D01*
X355073Y23566D01*
X355807Y24193D01*
X356368Y24850D01*
Y19616D01*
X356322Y19561D01*
X355909Y18887D01*
X355805Y18854D01*
X355665Y18781D01*
X355537Y18688D01*
X355426Y18576D01*
X355333Y18448D01*
X355262Y18307D01*
X355214Y18156D01*
X355189Y18000D01*
X355190Y17842D01*
X355215Y17686D01*
X355267Y17537D01*
X355332Y17366D01*
X355222Y16907D01*
X355146Y15945D01*
X355222Y14982D01*
X355333Y14520D01*
X355271Y14351D01*
X355219Y14203D01*
X355194Y14047D01*
X355193Y13890D01*
X355218Y13734D01*
X355266Y13584D01*
X355337Y13444D01*
X355429Y13316D01*
X355540Y13205D01*
X355667Y13112D01*
X355807Y13040D01*
X355905Y13008D01*
X356322Y12328D01*
X356368Y12273D01*
Y1969D01*
X351459D01*
Y9811D01*
X351727D01*
X352264Y9858D01*
X352796Y9953D01*
X353317Y10094D01*
X353824Y10280D01*
X353965Y10351D01*
X354093Y10444D01*
X354204Y10556D01*
X354297Y10684D01*
X354368Y10826D01*
X354416Y10976D01*
X354440Y11132D01*
X354440Y11290D01*
X354415Y11446D01*
X354365Y11596D01*
X354293Y11737D01*
X354200Y11864D01*
X354088Y11976D01*
X353960Y12068D01*
X353819Y12140D01*
X353668Y12188D01*
X353512Y12212D01*
X353354Y12212D01*
X353198Y12187D01*
X353049Y12134D01*
X352709Y12005D01*
X352358Y11911D01*
X352001Y11847D01*
X351638Y11815D01*
X351459D01*
Y20075D01*
X351638D01*
X352001Y20043D01*
X352358Y19979D01*
X352709Y19884D01*
X353051Y19759D01*
X353199Y19707D01*
X353354Y19682D01*
X353512Y19682D01*
X353667Y19706D01*
X353817Y19754D01*
X353958Y19825D01*
X354085Y19917D01*
X354197Y20028D01*
X354290Y20155D01*
X354362Y20295D01*
X354411Y20445D01*
X354436Y20600D01*
X354436Y20757D01*
X354412Y20913D01*
X354364Y21063D01*
X354293Y21203D01*
X354201Y21331D01*
X354090Y21442D01*
X353963Y21535D01*
X353822Y21604D01*
X353317Y21796D01*
X352796Y21937D01*
X352264Y22031D01*
X351727Y22079D01*
X351459D01*
Y22391D01*
X352419Y22466D01*
G37*
G36*
X356368Y391732D02*Y32237D01*
X355807Y32894D01*
X355073Y33521D01*
X354250Y34025D01*
X353358Y34395D01*
X352419Y34620D01*
X351459Y34696D01*
Y391732D01*
X356368D01*
G37*
G36*
X347106Y24193D02*X347840Y23566D01*
X348663Y23061D01*
X349555Y22692D01*
X350494Y22466D01*
X351457Y22391D01*
X351459Y22391D01*
Y22079D01*
X351187D01*
X350649Y22031D01*
X350117Y21937D01*
X349596Y21796D01*
X349089Y21610D01*
X348948Y21539D01*
X348821Y21446D01*
X348709Y21333D01*
X348617Y21205D01*
X348546Y21064D01*
X348497Y20914D01*
X348473Y20758D01*
X348473Y20600D01*
X348499Y20444D01*
X348548Y20293D01*
X348620Y20153D01*
X348713Y20025D01*
X348826Y19914D01*
X348954Y19821D01*
X349095Y19750D01*
X349245Y19702D01*
X349401Y19678D01*
X349559Y19678D01*
X349715Y19703D01*
X349864Y19755D01*
X350204Y19884D01*
X350555Y19979D01*
X350913Y20043D01*
X351275Y20075D01*
X351459D01*
Y11815D01*
X351275D01*
X350913Y11847D01*
X350555Y11911D01*
X350204Y12005D01*
X349863Y12131D01*
X349714Y12183D01*
X349559Y12208D01*
X349402Y12208D01*
X349246Y12184D01*
X349096Y12136D01*
X348956Y12065D01*
X348828Y11973D01*
X348717Y11862D01*
X348624Y11735D01*
X348552Y11595D01*
X348503Y11445D01*
X348477Y11290D01*
X348477Y11132D01*
X348501Y10977D01*
X348549Y10827D01*
X348620Y10687D01*
X348712Y10559D01*
X348823Y10447D01*
X348950Y10354D01*
X349092Y10285D01*
X349596Y10094D01*
X350117Y9953D01*
X350649Y9858D01*
X351187Y9811D01*
X351459D01*
Y1969D01*
X346523D01*
Y12980D01*
X346644Y12961D01*
X346802Y12962D01*
X346958Y12987D01*
X347108Y13036D01*
X347249Y13108D01*
X347376Y13202D01*
X347488Y13314D01*
X347580Y13442D01*
X347651Y13583D01*
X347700Y13733D01*
X347724Y13890D01*
X347724Y14048D01*
X347698Y14204D01*
X347646Y14353D01*
X347517Y14692D01*
X347422Y15043D01*
X347359Y15401D01*
X347327Y15763D01*
Y16127D01*
X347359Y16489D01*
X347422Y16847D01*
X347517Y17198D01*
X347642Y17539D01*
X347694Y17687D01*
X347720Y17843D01*
X347720Y18000D01*
X347696Y18155D01*
X347648Y18305D01*
X347577Y18446D01*
X347485Y18573D01*
X347374Y18685D01*
X347247Y18778D01*
X347107Y18850D01*
X346957Y18899D01*
X346802Y18924D01*
X346644Y18925D01*
X346523Y18906D01*
Y24875D01*
X347106Y24193D01*
G37*
G36*
X351459Y391732D02*Y34696D01*
X351457Y34696D01*
X350494Y34620D01*
X349555Y34395D01*
X348663Y34025D01*
X347840Y33521D01*
X347106Y32894D01*
X346523Y32212D01*
Y391732D01*
X351459D01*
G37*
G36*
X346523D02*Y32212D01*
X346479Y32160D01*
X345975Y31337D01*
X345605Y30445D01*
X345380Y29506D01*
X345304Y28543D01*
X345380Y27581D01*
X345605Y26642D01*
X345975Y25750D01*
X346479Y24927D01*
X346523Y24875D01*
Y18906D01*
X346489Y18900D01*
X346339Y18852D01*
X346198Y18781D01*
X346071Y18689D01*
X345959Y18578D01*
X345866Y18451D01*
X345797Y18310D01*
X345606Y17805D01*
X345465Y17284D01*
X345370Y16753D01*
X345323Y16215D01*
Y15675D01*
X345370Y15137D01*
X345465Y14606D01*
X345606Y14084D01*
X345792Y13578D01*
X345863Y13437D01*
X345956Y13309D01*
X346068Y13198D01*
X346196Y13105D01*
X346337Y13034D01*
X346488Y12985D01*
X346523Y12980D01*
Y1969D01*
X338256D01*
Y9593D01*
X338678Y9851D01*
X338942Y10077D01*
X338256Y10764D01*
Y14299D01*
X340710Y11845D01*
X340936Y12110D01*
X341773Y13476D01*
X342386Y14956D01*
X342760Y16513D01*
X342854Y18110D01*
Y19685D01*
X342760Y21282D01*
X342386Y22840D01*
X341773Y24320D01*
X340936Y25685D01*
X340710Y25950D01*
X338256Y23496D01*
Y27032D01*
X338942Y27718D01*
X338678Y27944D01*
X338256Y28202D01*
Y391732D01*
X346523D01*
G37*
G36*
X332677Y16342D02*Y21453D01*
X338256Y27032D01*
Y23496D01*
X333658Y18898D01*
X338256Y14299D01*
Y10764D01*
X332677Y16342D01*
G37*
G36*
Y1969D02*Y7902D01*
X334274Y8027D01*
X335832Y8401D01*
X337312Y9014D01*
X338256Y9593D01*
Y1969D01*
X332677D01*
G37*
G36*
X338256Y391732D02*Y28202D01*
X337312Y28781D01*
X335832Y29394D01*
X334274Y29768D01*
X332677Y29894D01*
Y391732D01*
X338256D01*
G37*
G36*
X328043Y9014D02*X329523Y8401D01*
X331080Y8027D01*
X332677Y7902D01*
Y1969D01*
X327098D01*
Y9593D01*
X328043Y9014D01*
G37*
G36*
X332677Y21453D02*Y16342D01*
X327098Y10764D01*
Y14299D01*
X331697Y18898D01*
X327098Y23496D01*
Y27032D01*
X332677Y21453D01*
G37*
G36*
Y391732D02*Y29894D01*
X331080Y29768D01*
X329523Y29394D01*
X328043Y28781D01*
X327098Y28202D01*
Y391732D01*
X332677D01*
G37*
G36*
X327098D02*Y28202D01*
X326677Y27944D01*
X326412Y27718D01*
X327098Y27032D01*
Y23496D01*
X324644Y25950D01*
X324418Y25685D01*
X323581Y24320D01*
X322968Y22840D01*
X322594Y21282D01*
X322500Y19685D01*
Y18110D01*
X322594Y16513D01*
X322968Y14956D01*
X323581Y13476D01*
X324418Y12110D01*
X324644Y11845D01*
X327098Y14299D01*
Y10764D01*
X326412Y10077D01*
X326677Y9851D01*
X327098Y9593D01*
Y1969D01*
X94475D01*
Y116570D01*
X146314Y168409D01*
X146315Y168409D01*
X148272Y170499D01*
X150016Y172772D01*
X151556Y175189D01*
X152879Y177731D01*
X153976Y180378D01*
X154837Y183111D01*
X155457Y185908D01*
X155831Y188749D01*
X155956Y191612D01*
X155925Y192051D01*
Y206634D01*
X156002Y206821D01*
X156076Y207127D01*
X156101Y207441D01*
X156094Y207519D01*
Y219174D01*
X156101Y219252D01*
X156076Y219566D01*
X156002Y219872D01*
X155882Y220163D01*
X155718Y220431D01*
X155513Y220671D01*
X155274Y220875D01*
X155005Y221039D01*
X154714Y221160D01*
X154408Y221233D01*
X154094Y221258D01*
X154016Y221252D01*
X147283D01*
X147205Y221258D01*
X146891Y221233D01*
X146891Y221233D01*
X146585Y221160D01*
X146294Y221039D01*
X146026Y220875D01*
X145786Y220671D01*
X145582Y220431D01*
X145417Y220163D01*
X145297Y219872D01*
X145223Y219566D01*
X145199Y219252D01*
X145205Y219173D01*
Y207519D01*
X145199Y207441D01*
X145223Y207127D01*
X145297Y206821D01*
X145413Y206539D01*
Y191972D01*
X145392Y191612D01*
X145329Y189668D01*
X145075Y187739D01*
X144653Y185840D01*
X144068Y183984D01*
X143324Y182186D01*
X142425Y180461D01*
X141380Y178820D01*
X140195Y177276D01*
X138881Y175841D01*
X94475Y131436D01*
Y391732D01*
X327098D01*
G37*
G36*
X40390Y34899D02*X41385Y35138D01*
X42330Y35529D01*
X43202Y36064D01*
X43980Y36728D01*
X44645Y37506D01*
X45179Y38379D01*
X45571Y39324D01*
X45810Y40319D01*
X45870Y41339D01*
X45810Y42359D01*
X45571Y43353D01*
X45179Y44299D01*
X44645Y45171D01*
X44626Y45193D01*
Y57123D01*
X44647Y57482D01*
X44711Y59426D01*
X44965Y61355D01*
X45386Y63255D01*
X45971Y65110D01*
X46716Y66908D01*
X47614Y68634D01*
X48659Y70275D01*
X49844Y71818D01*
X51158Y73253D01*
X94475Y116570D01*
Y1969D01*
X39370D01*
Y4839D01*
X43272D01*
X43370Y4831D01*
X43762Y4862D01*
X43762Y4862D01*
X44145Y4954D01*
X44509Y5104D01*
X44844Y5310D01*
X45143Y5565D01*
X45399Y5865D01*
X45604Y6200D01*
X45755Y6564D01*
X45847Y6946D01*
X45878Y7339D01*
X45870Y7437D01*
Y15241D01*
X45878Y15339D01*
X45847Y15731D01*
X45847Y15731D01*
X45755Y16114D01*
X45604Y16477D01*
X45399Y16813D01*
X45143Y17112D01*
X44844Y17367D01*
X44509Y17573D01*
X44145Y17724D01*
X43762Y17815D01*
X43370Y17846D01*
X43272Y17839D01*
X39370D01*
Y34819D01*
X40390Y34899D01*
G37*
G36*
X94475Y391732D02*Y131436D01*
X43725Y80686D01*
X43725Y80685D01*
X41767Y78595D01*
X40023Y76322D01*
X39370Y75297D01*
Y391732D01*
X94475D01*
G37*
G36*
X39370D02*Y75297D01*
X38483Y73905D01*
X37160Y71364D01*
X36064Y68716D01*
X35202Y65984D01*
X34582Y63186D01*
X34208Y60345D01*
X34083Y57482D01*
X34114Y57043D01*
Y45193D01*
X34095Y45171D01*
X33561Y44299D01*
X33169Y43353D01*
X32930Y42359D01*
X32850Y41339D01*
X32930Y40319D01*
X33169Y39324D01*
X33561Y38379D01*
X34095Y37506D01*
X34760Y36728D01*
X35538Y36064D01*
X36410Y35529D01*
X37355Y35138D01*
X38350Y34899D01*
X39370Y34819D01*
Y17839D01*
X35468D01*
X35370Y17846D01*
X34978Y17815D01*
X34978Y17815D01*
X34595Y17724D01*
X34232Y17573D01*
X33896Y17367D01*
X33597Y17112D01*
X33341Y16813D01*
X33136Y16477D01*
X32985Y16114D01*
X32893Y15731D01*
X32862Y15339D01*
X32870Y15241D01*
Y7437D01*
X32862Y7339D01*
X32893Y6946D01*
X32893Y6946D01*
X32985Y6564D01*
X33136Y6200D01*
X33341Y5865D01*
X33597Y5565D01*
X33896Y5310D01*
X34232Y5104D01*
X34595Y4954D01*
X34978Y4862D01*
X35370Y4831D01*
X35468Y4839D01*
X39370D01*
Y1969D01*
X26775D01*
Y18654D01*
X26857Y18661D01*
X27048Y18708D01*
X27229Y18784D01*
X27397Y18888D01*
X27546Y19016D01*
X27673Y19167D01*
X27775Y19335D01*
X27845Y19518D01*
X28002Y20071D01*
X28103Y20636D01*
X28154Y21209D01*
Y21783D01*
X28103Y22356D01*
X28002Y22921D01*
X27851Y23476D01*
X27778Y23659D01*
X27676Y23828D01*
X27548Y23979D01*
X27399Y24108D01*
X27231Y24211D01*
X27049Y24288D01*
X26857Y24335D01*
X26775Y24342D01*
Y25255D01*
X26792Y25262D01*
X27128Y25467D01*
X27427Y25723D01*
X27682Y26022D01*
X27888Y26358D01*
X28039Y26721D01*
X28130Y27104D01*
X28161Y27496D01*
X28154Y27594D01*
Y35398D01*
X28161Y35496D01*
X28130Y35888D01*
X28130Y35888D01*
X28039Y36271D01*
X27888Y36635D01*
X27682Y36970D01*
X27427Y37269D01*
X27128Y37525D01*
X26792Y37730D01*
X26775Y37737D01*
Y391732D01*
X39370D01*
G37*
G36*
X21656Y1969D02*Y14996D01*
X21941D01*
X22513Y15047D01*
X23079Y15148D01*
X23633Y15298D01*
X23817Y15372D01*
X23985Y15474D01*
X24136Y15601D01*
X24265Y15751D01*
X24369Y15918D01*
X24445Y16100D01*
X24492Y16292D01*
X24509Y16489D01*
X24494Y16686D01*
X24449Y16878D01*
X24375Y17061D01*
X24272Y17229D01*
X24145Y17380D01*
X23995Y17509D01*
X23828Y17613D01*
X23646Y17689D01*
X23454Y17736D01*
X23257Y17753D01*
X23061Y17738D01*
X22870Y17689D01*
X22530Y17593D01*
X22182Y17531D01*
X21830Y17500D01*
X21656D01*
Y24996D01*
X25556D01*
X25654Y24988D01*
X26046Y25019D01*
X26046Y25019D01*
X26428Y25111D01*
X26775Y25255D01*
Y24342D01*
X26661Y24351D01*
X26464Y24337D01*
X26272Y24292D01*
X26089Y24217D01*
X25920Y24115D01*
X25770Y23987D01*
X25641Y23838D01*
X25537Y23670D01*
X25460Y23488D01*
X25413Y23297D01*
X25397Y23100D01*
X25411Y22903D01*
X25460Y22712D01*
X25556Y22372D01*
X25618Y22025D01*
X25650Y21673D01*
Y21319D01*
X25618Y20968D01*
X25556Y20620D01*
X25464Y20279D01*
X25415Y20088D01*
X25401Y19892D01*
X25417Y19696D01*
X25464Y19505D01*
X25540Y19324D01*
X25644Y19156D01*
X25772Y19007D01*
X25923Y18880D01*
X26091Y18778D01*
X26273Y18704D01*
X26465Y18659D01*
X26661Y18645D01*
X26775Y18654D01*
Y1969D01*
X21656D01*
G37*
G36*
X26775Y391732D02*Y37737D01*
X26428Y37881D01*
X26046Y37973D01*
X25654Y38004D01*
X25556Y37996D01*
X21656D01*
Y371427D01*
X21989Y371712D01*
X22889Y372765D01*
X23612Y373946D01*
X24142Y375225D01*
X24466Y376572D01*
X24547Y377953D01*
X24466Y379334D01*
X24142Y380680D01*
X23612Y381960D01*
X22889Y383141D01*
X21989Y384194D01*
X21656Y384479D01*
Y391732D01*
X26775D01*
G37*
G36*
X17751Y37996D02*X17654Y38004D01*
X17261Y37973D01*
X17261Y37973D01*
X16879Y37881D01*
X16515Y37730D01*
X16180Y37525D01*
X15880Y37269D01*
X15734Y37099D01*
Y369127D01*
X15748Y369126D01*
X17129Y369235D01*
X18476Y369558D01*
X19755Y370088D01*
X20936Y370812D01*
X21656Y371427D01*
Y37996D01*
X17751D01*
G37*
G36*
X15734Y1969D02*Y19042D01*
X15759Y19014D01*
X15908Y18885D01*
X16076Y18781D01*
X16258Y18704D01*
X16450Y18657D01*
X16646Y18641D01*
X16843Y18655D01*
X17035Y18700D01*
X17218Y18775D01*
X17387Y18877D01*
X17537Y19005D01*
X17666Y19154D01*
X17770Y19322D01*
X17847Y19504D01*
X17894Y19696D01*
X17910Y19892D01*
X17896Y20089D01*
X17847Y20280D01*
X17751Y20620D01*
X17689Y20968D01*
X17657Y21319D01*
Y21673D01*
X17689Y22025D01*
X17751Y22372D01*
X17843Y22713D01*
X17892Y22904D01*
X17906Y23100D01*
X17890Y23296D01*
X17843Y23487D01*
X17767Y23668D01*
X17663Y23836D01*
X17535Y23985D01*
X17384Y24112D01*
X17216Y24214D01*
X17034Y24288D01*
X16843Y24333D01*
X16646Y24347D01*
X16450Y24331D01*
X16259Y24284D01*
X16078Y24208D01*
X15911Y24104D01*
X15762Y23976D01*
X15734Y23944D01*
Y25894D01*
X15880Y25723D01*
X16180Y25467D01*
X16515Y25262D01*
X16879Y25111D01*
X17261Y25019D01*
X17654Y24988D01*
X17752Y24996D01*
X21656D01*
Y17500D01*
X21477D01*
X21125Y17531D01*
X20777Y17593D01*
X20436Y17686D01*
X20246Y17734D01*
X20050Y17749D01*
X19854Y17732D01*
X19663Y17686D01*
X19481Y17609D01*
X19314Y17506D01*
X19165Y17377D01*
X19038Y17227D01*
X18936Y17059D01*
X18862Y16877D01*
X18817Y16685D01*
X18802Y16489D01*
X18819Y16293D01*
X18865Y16102D01*
X18942Y15920D01*
X19045Y15753D01*
X19174Y15604D01*
X19324Y15477D01*
X19492Y15375D01*
X19676Y15304D01*
X20228Y15148D01*
X20794Y15047D01*
X21366Y14996D01*
X21656D01*
Y1969D01*
X15734D01*
G37*
G36*
X21656Y391732D02*Y384479D01*
X20936Y385093D01*
X19755Y385817D01*
X18476Y386347D01*
X17129Y386670D01*
X15748Y386779D01*
X15734Y386778D01*
Y391732D01*
X21656D01*
G37*
G36*
X15734D02*Y386778D01*
X14367Y386670D01*
X13021Y386347D01*
X11741Y385817D01*
X10560Y385093D01*
X9507Y384194D01*
X8607Y383141D01*
X7884Y381960D01*
X7354Y380680D01*
X7030Y379334D01*
X6922Y377953D01*
X7030Y376572D01*
X7354Y375225D01*
X7884Y373946D01*
X8607Y372765D01*
X9507Y371712D01*
X10560Y370812D01*
X11741Y370088D01*
X13021Y369558D01*
X14367Y369235D01*
X15734Y369127D01*
Y37099D01*
X15625Y36970D01*
X15419Y36635D01*
X15269Y36271D01*
X15177Y35888D01*
X15146Y35496D01*
X15154Y35398D01*
Y27594D01*
X15146Y27496D01*
X15177Y27104D01*
X15177Y27104D01*
X15269Y26721D01*
X15419Y26358D01*
X15625Y26022D01*
X15734Y25894D01*
Y23944D01*
X15635Y23826D01*
X15533Y23657D01*
X15462Y23474D01*
X15305Y22921D01*
X15204Y22356D01*
X15154Y21783D01*
Y21209D01*
X15204Y20636D01*
X15305Y20071D01*
X15456Y19516D01*
X15529Y19333D01*
X15631Y19164D01*
X15734Y19042D01*
Y1969D01*
X1969D01*
Y391732D01*
X15734D01*
G37*
G54D20*X142597Y172125D02*X47442Y76970D01*
X39370Y57482D02*Y41339D01*
X150669Y213346D02*Y191612D01*
G75*G02X142597Y172125I-27559J0D01*G01*
X47442Y76970D02*G75*G03X39370Y57482I19487J-19487D01*G01*
G54D19*G36*
X144094Y207441D02*X137205D01*
Y219252D01*
X144094D01*
Y207441D01*
G37*
G36*
X25654Y27496D02*X17654D01*
Y35496D01*
X25654D01*
Y27496D01*
G37*
G54D21*X21654Y21496D03*
G54D19*G36*
X35370Y7339D02*Y15339D01*
X43370D01*
Y7339D01*
X35370D01*
G37*
G54D21*X39370Y41339D03*
G54D19*G36*
X154094Y207441D02*X147205D01*
Y219252D01*
X154094D01*
Y207441D01*
G37*
G54D22*X380079Y19685D02*Y18110D01*
G54D23*X351457Y28543D03*
X361299D03*
X351457Y15945D03*
G54D22*X332677Y19685D02*Y18110D01*
G54D23*X361299Y15945D03*
G54D24*G54D25*G54D26*G54D24*G54D27*M02*
